<svg width="60" height="60" xmlns="http://www.w3.org/2000/svg" viewBox="160 83 175.87 15.87" style="background: rgba(0, 0, 0, 0) none repeat scroll 0% 0%;" preserveAspectRatio="xMidYMid"><defs><filter id="editing-extrude-glow"><feFlood flood-color="#333333" result="flood-1"></feFlood><feMorphology operator="erode" radius="1" in="SourceAlpha" result="erode"></feMorphology><feComposite operator="in" in="flood-1" in2="erode" result="comp1"></feComposite><feConvolveMatrix order="3,3" divisor="1" in="comp1" result="convolve" kernelMatrix="0 0 0 1 1 1 0 0 0"></feConvolveMatrix><feOffset dx="-3" dy="0" in="convolve" result="extrude"></feOffset><feComposite operator="in" in="flood-1" in2="extrude" result="comp-extrude"></feComposite><feFlood flood-color="#000000" result="flood-2"></feFlood><feComposite operator="in" in="flood-2" in2="SourceAlpha" result="comp2"></feComposite><feMorphology operator="dilate" radius="1" in="comp2" result="dilate"></feMorphology><feOffset dx="-4.5" dy="0" in="dilate" result="offset"></feOffset><feGaussianBlur in="offset" stdDeviation="5.8" result="blur"></feGaussianBlur><feComponentTransfer in="blur" result="shadow"><feFuncA type="linear" slope="0.8" intercept="-0.2"></feFuncA></feComponentTransfer><feMerge><feMergeNode in="shadow"></feMergeNode><feMergeNode in="comp-extrude"></feMergeNode><feMergeNode in="SourceGraphic"></feMergeNode></feMerge></filter></defs><g filter="url(#editing-extrude-glow)"><g transform="translate(191.1200066804886, 104.76000022888184)"><path d="M16.45-3.52L16.45-3.52L16.45-3.52Q14.46 1.28 8.13 1.28L8.13 1.28L8.13 1.28Q4.86 1.28 2.82-0.96L2.82-0.96L2.82-0.96Q1.09-2.94 1.09-4.93L1.09-4.93L1.09-4.93Q1.09-10.11 3.46-20.22L3.46-20.22L5.82-32.64L18.82-33.92L14.91-13.70L14.91-13.70Q13.82-8.96 13.82-7.30L13.82-7.30L13.82-7.30Q13.82-3.65 16.45-3.52ZM6.98-41.54L6.98-41.54L6.98-41.54Q6.98-44.03 9.06-45.38L9.06-45.38L9.06-45.38Q11.14-46.72 14.14-46.72L14.14-46.72L14.14-46.72Q17.15-46.72 18.98-45.38L18.98-45.38L18.98-45.38Q20.80-44.03 20.80-41.54L20.80-41.54L20.80-41.54Q20.80-39.04 18.78-37.76L18.78-37.76L18.78-37.76Q16.77-36.48 13.76-36.48L13.76-36.48L13.76-36.48Q10.75-36.48 8.86-37.76L8.86-37.76L8.86-37.76Q6.98-39.04 6.98-41.54ZM67.97 1.28L67.97 1.28L67.97 1.28Q60.22 1.28 60.22-4.74L60.22-4.74L60.22-4.74Q60.22-7.36 61.34-12.45L61.34-12.45L61.34-12.45Q62.46-17.54 62.85-19.58L62.85-19.58L62.85-19.58Q63.74-24.26 63.74-25.73L63.74-25.73L63.74-25.73Q63.74-28.99 61.31-28.99L61.31-28.99L61.31-28.99Q59.71-28.99 58.18-26.78L58.18-26.78L58.18-26.78Q56.64-24.58 55.94-20.16L55.94-20.16L51.97 0L39.49 1.28L42.94-16.13L42.94-16.13Q43.52-19.01 44.03-22.27L44.03-22.27L44.03-22.27Q44.54-25.54 44.54-26.05L44.54-26.05L44.54-26.05Q44.54-28.99 42.37-28.99L42.37-28.99L42.37-28.99Q40.90-28.99 39.30-26.82L39.30-26.82L39.30-26.82Q37.70-24.64 36.80-20.16L36.80-20.16L32.90 0L20.29 1.28L27.01-32.64L37.44-33.92L36.35-27.46L36.35-27.46Q38.02-30.91 41.09-32.42L41.09-32.42L41.09-32.42Q44.16-33.92 48.96-33.92L48.96-33.92L48.96-33.92Q51.71-33.92 53.50-32.58L53.50-32.58L53.50-32.58Q55.30-31.23 55.87-29.06L55.87-29.06L55.87-29.06Q56.96-31.30 59.74-32.61L59.74-32.61L59.74-32.61Q62.53-33.92 65.95-33.92L65.95-33.92L65.95-33.92Q69.38-33.92 71.07-33.18L71.07-33.18L71.07-33.18Q72.77-32.45 73.79-31.23L73.79-31.23L73.79-31.23Q75.52-28.99 75.52-24.90L75.52-24.90L75.52-24.90Q75.52-20.86 73.79-12.48L73.79-12.48L73.79-12.48Q72.90-8.38 72.90-6.88L72.90-6.88L72.90-6.88Q72.90-5.38 73.76-4.48L73.76-4.48L73.76-4.48Q74.62-3.58 75.90-3.46L75.90-3.46L75.90-3.46Q75.26-1.28 73.06 0L73.06 0L73.06 0Q70.85 1.28 67.97 1.28ZM85.38-26.75L85.38-26.75L85.38-26.75Q87.55-29.82 90.85-31.87L90.85-31.87L90.85-31.87Q94.14-33.92 98.18-33.92L98.18-33.92L98.18-33.92Q102.21-33.92 104.13-32.64L104.13-32.64L116.67-33.92L112.32-9.34L112.32-9.34Q110.08 3.20 105.34 8.13L105.34 8.13L105.34 8.13Q100.80 12.80 91.97 12.80L91.97 12.80L91.97 12.80Q85.25 12.80 81.41 10.69L81.41 10.69L81.41 10.69Q77.57 8.58 77.57 5.06L77.57 5.06L77.57 5.06Q77.57 2.43 79.55 0.93L79.55 0.93L79.55 0.93Q81.54-0.58 84.61-0.58L84.61-0.58L84.61-0.58Q87.30-0.58 89.34 0.64L89.34 0.64L89.34 0.64Q90.56 1.28 91.14 2.18L91.14 2.18L91.14 2.18Q89.66 3.46 89.66 5.57L89.66 5.57L89.66 5.57Q89.66 8.32 92.22 8.32L92.22 8.32L92.22 8.32Q96.51 8.32 98.94-1.79L98.94-1.79L98.94-1.79Q99.65-4.54 100.22-7.30L100.22-7.30L100.22-7.30Q97.34-3.78 90.82-3.78L90.82-3.78L90.82-3.78Q86.27-3.78 83.65-5.95L83.65-5.95L83.65-5.95Q81.02-8.13 81.02-13.25L81.02-13.25L81.02-13.25Q81.02-16.45 82.11-20.06L82.11-20.06L82.11-20.06Q83.20-23.68 85.38-26.75ZM93.70-13.06L93.70-13.06L93.70-13.06Q93.70-8.70 95.94-8.70L95.94-8.70L95.94-8.70Q97.47-8.70 98.94-10.37L98.94-10.37L98.94-10.37Q100.10-11.71 100.54-13.70L100.54-13.70L103.81-30.14L103.81-30.14Q103.49-30.21 103.17-30.34L103.17-30.34L103.17-30.34Q102.53-30.59 101.70-30.59L101.70-30.59L101.70-30.59Q97.79-30.59 95.49-24.19L95.49-24.19L95.49-24.19Q93.70-19.20 93.70-13.06Z" fill="#eb6c6c"></path></g></g><style>text {
  font-size: 64px;
  font-family: Arial Black;
  dominant-baseline: central;
  text-anchor: middle;
}</style></svg>
